{
  "title": "Sardar Ji 2 (2016) x264 1CD Desipdvd Rip -DDR",
  "uid": 15104479,
  "size": 732966228,
  "categoryP": "video",
  "categoryS": "movies",
  "magnet": "?xt=urn:btih:bdd19ccd00c4e44a33151dbeb158b8a398914761&amp;dn=Sardar+Ji+2+%282016%29+x264+1CD+Desipdvd+Rip+-DDR&amp;tr=udp%3A%2F%2Ftracker.leechers-paradise.org%3A6969&amp;tr=udp%3A%2F%2Fzer0day.ch%3A1337&amp;tr=udp%3A%2F%2Fopen.demonii.com%3A1337&amp;tr=udp%3A%2F%2Ftracker.coppersurfer.tk%3A6969&amp;tr=udp%3A%2F%2Fexodus.desync.com%3A6969",
  "seeders": 72,
  "leechers": 26,
  "uploader": "SaM",
  "files": 3,
  "time": 1466973368,
  "description": "- PollywooD MoviE -\r\n**- SARDAR JI - 2 -**\r\n- 2016 -\r\n** 1 CD DesiPDvD rip / x264 / AAC 2.0 **\r\nNo subtitle(s)\r\n \nhttp://extraimago.com/image/a5BD \nhttp://extraimago.com/image/a5B5 \nhttp://extraimago.com/image/a5BX \nhttp://extraimago.com/image/a5BP \nhttp://extraimago.com/image/a5BG \nhttp://extraimago.com/image/a5Br \nhttp://extraimago.com/image/a5Bp \nhttp://extraimago.com/image/a5BY\r\n\r\n[ Specs ]\r\nGeneral\r\nSource = DesiPDVD @ DUS\r\nFormat : Matroska\r\nFile size : 695 MiB\r\nDuration : 2h 13mn\r\nOverall bit rate : 726 Kbps\r\nEncoded date : UTC 2016-06-26 01:48:02\r\n\r\nVideo\r\nFormat : AVC\r\nFormat profile :   \r\nFormat settings, CABAC : Yes\r\nFormat settings, ReFrames : 8 frames\r\nDuration : 2h 13mn\r\nBit rate : 660 Kbps\r\nWidth : 640 pixels\r\nHeight : 272 pixels\r\nDisplay aspect ratio : 2.35:1\r\nFrame rate mode : Constant\r\nFrame rate : 25.000 fps\r\nBit depth : 8 bits\r\nScan type : Progressive\r\nBits/(Pixel*Frame) : 0.152\r\nStream size : 632 MiB (91%)\r\nLanguage : English\r\nDefault : Yes\r\nForced : No\r\n\r\nAudio\r\nFormat : AAC\r\nFormat profile : LC\r\nDuration : 2h 13mn\r\nBit rate : 64.0 Kbps\r\nChannel(s) : 2 channels\r\nChannel positions : Front: L R\r\nSampling rate : 44.1 KHz\r\nFrame rate : 43.066 fps (1024 spf)\r\nCompression mode : Lossy\r\nDelay relative to video : 10ms\r\nStream size : 61.3 MiB (9%)\r\nLanguage : Panjabi\r\nDefault : Yes\r\nForced : No\r\n\r\n\r\n\r\nChapters: No - 1\r\nSample: YES - included\r\n\r\nA DDR 8th Anniversary Exclusive Release...!",
  "parsed": {
    "xt": "urn:btih:bdd19ccd00c4e44a33151dbeb158b8a398914761",
    "dn": "Sardar Ji 2 (2016) x264 1CD Desipdvd Rip -DDR",
    "tr": [
      "udp://exodus.desync.com:6969",
      "udp://open.demonii.com:1337",
      "udp://tracker.coppersurfer.tk:6969",
      "udp://tracker.leechers-paradise.org:6969",
      "udp://zer0day.ch:1337"
    ],
    "infoHash": "bdd19ccd00c4e44a33151dbeb158b8a398914761",
    "infoHashBuffer": {
      "type": "Buffer",
      "data": [
        189,
        209,
        156,
        205,
        0,
        196,
        228,
        74,
        51,
        21,
        29,
        190,
        177,
        88,
        184,
        163,
        152,
        145,
        71,
        97
      ]
    },
    "name": "Sardar Ji 2 (2016) x264 1CD Desipdvd Rip -DDR",
    "announce": [
      "udp://exodus.desync.com:6969",
      "udp://open.demonii.com:1337",
      "udp://tracker.coppersurfer.tk:6969",
      "udp://tracker.leechers-paradise.org:6969",
      "udp://zer0day.ch:1337"
    ],
    "urlList": []
  },
  "previous": 98,
  "peers": 309,
  "last_updated": "2016-12-25T12:36:13.582Z"
}